<?xml version="1.0" encoding="UTF-8"?>
<svg width="235px" height="140px" viewBox="0 0 235 140" version="1.1" xmlns="http://www.w3.org/2000/svg" xmlns:xlink="http://www.w3.org/1999/xlink">
    <title>Group 24</title>
    <g id="Page-1" stroke="none" stroke-width="1" fill="none" fill-rule="evenodd">
        <g id="Group-24">
            <g id="Group-9" transform="translate(26.469846, 97.671010)" fill="#FFFFFF" fill-rule="nonzero">
                <g id="Group-7" transform="translate(0.000000, 0.937500)">
                    <path d="M6.8323172,39.9751892 L6.8323172,11.5051801 L0.29,11.5051801 L0.29,39.9751892 L6.8323172,39.9751892 Z M17.4523172,39.9753998 L17.4523172,26.2236801 C17.4523172,21.7108664 21.1237888,18.0393948 25.6366025,18.0393948 C30.1494162,18.0393948 33.8208878,21.7108664 33.8208878,26.2236801 L33.8208878,39.9753998 L40.363205,39.9753998 L40.363205,26.2236801 C40.363205,18.1034332 33.7568503,11.4970776 25.6366034,11.4970776 C17.5163556,11.4970776 10.91,18.1034332 10.91,26.2236801 L10.91,39.9753998 L17.4523172,39.9753998 Z M50.9923172,39.9751892 L50.9923172,0.722594299 L44.45,0.722594299 L44.45,39.9751892 L50.9923172,39.9751892 Z M84.1146042,40.0522006 L84.1146042,11.4969092 L77.5723639,11.4969092 L77.5723639,14.0250912 C75.2301373,12.4534732 72.4144009,11.5353934 69.3880017,11.5353934 C61.2677548,11.5353934 54.6613992,18.141749 54.6613992,26.2619958 C54.6613992,33.8447723 60.8303424,40.0137155 68.413042,40.0137155 L74.0870016,40.0137155 L74.0870016,33.4713983 L68.413042,33.4713983 C64.4378534,33.4713983 61.2037164,30.2372614 61.2037164,26.2619958 C61.2037164,21.7491821 64.875188,18.0777106 69.3880017,18.0777106 C73.9008154,18.0777106 77.572287,21.7491821 77.572287,26.2619958 L77.572287,40.0522006 L84.1146042,40.0522006 Z M94.7923163,39.9754007 L94.7923163,26.3006494 C94.7923163,21.7878357 98.4637878,18.1163641 102.976602,18.1163641 C107.489415,18.1163641 111.160887,21.7878357 111.160887,26.3006494 L111.160887,39.9754007 L117.728912,39.9754007 L117.728912,26.3006494 C117.728912,21.7878357 121.400384,18.1163641 125.913197,18.1163641 C130.426011,18.1163641 134.097483,21.7878357 134.097483,26.3006494 L134.097483,39.9754007 L140.6398,39.9754007 L140.6398,26.3006494 C140.6398,18.1804025 134.033522,11.5740469 125.913197,11.5740469 C121.283468,11.5740469 117.146645,13.7222357 114.444899,17.0735181 C111.74323,13.7222357 107.606408,11.5740469 102.976602,11.5740469 C94.8563547,11.5740469 88.2499991,18.1804025 88.2499991,26.3006494 L88.2499991,39.9754007 L94.7923163,39.9754007 Z M159.92412,40.0521576 C167.775594,40.0521576 174.163281,33.6644702 174.163281,25.8129965 C174.163281,17.9614459 167.775594,11.5738354 159.92412,11.5738354 L158.949161,11.5738354 C151.097687,11.5738354 144.71,17.9615228 144.71,25.8129965 C144.71,33.6644702 151.097687,40.0521576 158.949161,40.0521576 L159.92412,40.0521576 Z M159.92412,33.5098404 L158.949161,33.5098404 C154.705121,33.5098404 151.252317,30.0570361 151.252317,25.8129965 C151.252317,21.5689569 154.705121,18.1161526 158.949161,18.1161526 L159.92412,18.1161526 C164.168159,18.1161526 167.620964,21.5689569 167.620964,25.8129965 C167.620964,30.0570361 164.168159,33.5098404 159.92412,33.5098404 Z M184.792317,40.0521576 L184.792317,39.9751892 L184.865822,39.9751892 L184.865822,25.1669235 C185.402677,21.1700296 188.835162,18.0776685 192.976679,18.0776685 C197.489493,18.0776685 201.160965,21.74914 201.160965,26.2619537 C201.160965,30.2372192 197.926828,33.4713562 193.951562,33.4713562 L188.277603,33.4713562 L188.277603,40.0136734 L193.951562,40.0136734 C201.534262,40.0136734 207.703282,33.8446533 207.703282,26.2619537 C207.703282,18.1417068 201.09685,11.5353513 192.976603,11.5353513 C189.981684,11.5353513 187.193348,12.4348047 184.865745,13.976636 L184.865745,0.875222778 L178.323428,0.875222778 L178.323428,24.7887778 C178.275092,25.2734479 178.25,25.7648141 178.25,26.2619528 L178.25,40.0521576 L184.792317,40.0521576 Z" id="inlamob"></path>
                </g>
            </g>
            <circle id="Oval" fill="#FFFFFF" cx="29.9698463" cy="102.17101" r="3.5"></circle>
            <g id="Group" transform="translate(57.500000, 57.500000) scale(-1, 1) rotate(-110.000000) translate(-57.500000, -57.500000) translate(13.000000, 13.000000)" fill="#FA541C" fill-rule="nonzero">
                <g id="SvgjsG1819" transform="translate(-0.000000, -0.000000)">
                    <path d="M85.2495368,0.312555332 C85.2495368,0.312555332 113.695012,52.4514258 2.66437839,55.0238787 C-0.118672677,55.0883589 65.5291329,50.7125553 85.2495368,0.312555332 Z M2.17487239,56.6684642 C82.1167248,80.1743466 75.5432568,42.6919936 75.5432568,42.6919936 C55.3987582,59.2096407 2.17487239,56.6684642 2.17487239,56.6684642 Z M1.58993618,58.2392144 C59.3848218,98.3983377 64.1033936,66.5671522 64.1033936,66.5671522 C43.4562385,74.5337829 1.58993618,58.2392144 1.58993618,58.2392144 Z M1.07721722,59.8277468 C32.2236028,103.825232 43.9429097,82.1428531 43.9429097,82.1428531 C26.9318126,82.2270122 1.07721722,59.8277468 1.07721722,59.8277468 Z M0.166272263,61.234728 C8.29291929,97.875263 21.5808692,87.1258581 21.5808692,87.1258581 C10.8348672,82.8356101 0.166272263,61.234728 0.166272263,61.234728 Z" id="Shape"></path>
                </g>
            </g>
        </g>
    </g>
</svg>